<mxfile host="app.diagrams.net" agent="Mozilla/5.0 (Windows NT 10.0; Win64; x64) AppleWebKit/537.36 (KHTML, like Gecko) Chrome/139.0.0.0 Safari/537.36" version="28.1.1">
  <diagram name="Sequence Diagram - Aplikasi Laporan Masyarakat" id="fyUCJK-oNECvagZzwSdQ">
    <mxGraphModel dx="1737" dy="850" grid="1" gridSize="10" guides="1" tooltips="1" connect="1" arrows="1" fold="1" page="1" pageScale="1" pageWidth="850" pageHeight="1100" math="0" shadow="0">
      <root>
        <mxCell id="0" />
        <mxCell id="1" parent="0" />
        <mxCell id="mlbZZAVZjVXXNittmKPi-13" value="Aplikasi" style="shape=umlLifeline;whiteSpace=wrap;" vertex="1" parent="1">
          <mxGeometry x="300" y="20" width="120" height="600" as="geometry" />
        </mxCell>
        <mxCell id="mlbZZAVZjVXXNittmKPi-14" value="Admin Desa" style="shape=umlLifeline;whiteSpace=wrap;" vertex="1" parent="1">
          <mxGeometry x="520" y="20" width="120" height="600" as="geometry" />
        </mxCell>
        <mxCell id="mlbZZAVZjVXXNittmKPi-15" value="Pak RT" style="shape=umlLifeline;whiteSpace=wrap;" vertex="1" parent="1">
          <mxGeometry x="740" y="20" width="120" height="600" as="geometry" />
        </mxCell>
        <mxCell id="mlbZZAVZjVXXNittmKPi-16" value="1. Kirim Laporan" style="endArrow=block;html=1;" edge="1" parent="1">
          <mxGeometry x="-1" y="85" relative="1" as="geometry">
            <mxPoint x="200" y="180" as="sourcePoint" />
            <mxPoint x="280" y="180" as="targetPoint" />
            <Array as="points">
              <mxPoint x="250" y="180" />
            </Array>
            <mxPoint x="-60" y="25" as="offset" />
          </mxGeometry>
        </mxCell>
        <mxCell id="mlbZZAVZjVXXNittmKPi-17" value="2. Validasi Data Laporan" style="endArrow=block;html=1;strokeColor=none;" edge="1" parent="1" source="mlbZZAVZjVXXNittmKPi-13" target="mlbZZAVZjVXXNittmKPi-14">
          <mxGeometry x="-1" y="241" relative="1" as="geometry">
            <mxPoint x="-180" y="81" as="offset" />
          </mxGeometry>
        </mxCell>
        <mxCell id="mlbZZAVZjVXXNittmKPi-18" value="3. Verifikasi &amp; Balasan" style="endArrow=block;html=1;strokeColor=none;" edge="1" parent="1">
          <mxGeometry x="0.52" y="-23" relative="1" as="geometry">
            <mxPoint x="510" y="240" as="sourcePoint" />
            <mxPoint x="440" y="230" as="targetPoint" />
            <Array as="points" />
            <mxPoint as="offset" />
          </mxGeometry>
        </mxCell>
        <mxCell id="mlbZZAVZjVXXNittmKPi-19" value="4. Teruskan ke RT" style="endArrow=block;html=1;strokeColor=none;" edge="1" parent="1" source="mlbZZAVZjVXXNittmKPi-29">
          <mxGeometry x="0.2978" y="179" relative="1" as="geometry">
            <mxPoint x="420" y="350" as="sourcePoint" />
            <mxPoint x="740" y="350" as="targetPoint" />
            <mxPoint as="offset" />
          </mxGeometry>
        </mxCell>
        <mxCell id="mlbZZAVZjVXXNittmKPi-20" value="5. RT Tindak Lanjut" style="endArrow=block;html=1;strokeColor=none;" edge="1" parent="1" source="mlbZZAVZjVXXNittmKPi-32">
          <mxGeometry x="1" y="263" relative="1" as="geometry">
            <mxPoint x="740" y="400" as="sourcePoint" />
            <mxPoint x="420" y="400" as="targetPoint" />
            <mxPoint x="118" y="181" as="offset" />
          </mxGeometry>
        </mxCell>
        <mxCell id="mlbZZAVZjVXXNittmKPi-21" value="8. Notifikasi Status ke Warga" style="endArrow=block;html=1;strokeColor=none;" edge="1" parent="1" source="mlbZZAVZjVXXNittmKPi-13">
          <mxGeometry x="1" y="78" relative="1" as="geometry">
            <mxPoint x="200" y="320" as="targetPoint" />
            <Array as="points" />
            <mxPoint x="-60" y="-28" as="offset" />
          </mxGeometry>
        </mxCell>
        <mxCell id="mlbZZAVZjVXXNittmKPi-22" value="[Opsional] Jika laporan tidak valid â†’ kembalikan ke Warga untuk revisi" style="shape=note;whiteSpace=wrap;html=1;rounded=1;fillColor=#fff9c4;strokeColor=#fbc02d;fontSize=12;" vertex="1" parent="1">
          <mxGeometry x="310" y="690" width="320" height="60" as="geometry" />
        </mxCell>
        <mxCell id="mlbZZAVZjVXXNittmKPi-26" value="" style="endArrow=classic;html=1;rounded=0;" edge="1" parent="1">
          <mxGeometry width="50" height="50" relative="1" as="geometry">
            <mxPoint x="430" y="260" as="sourcePoint" />
            <mxPoint x="510" y="260" as="targetPoint" />
          </mxGeometry>
        </mxCell>
        <mxCell id="mlbZZAVZjVXXNittmKPi-27" value="" style="endArrow=classic;html=1;rounded=0;" edge="1" parent="1">
          <mxGeometry width="50" height="50" relative="1" as="geometry">
            <mxPoint x="650" y="200" as="sourcePoint" />
            <mxPoint x="720" y="200" as="targetPoint" />
          </mxGeometry>
        </mxCell>
        <mxCell id="mlbZZAVZjVXXNittmKPi-28" value="" style="endArrow=classic;html=1;rounded=0;" edge="1" parent="1" target="mlbZZAVZjVXXNittmKPi-14">
          <mxGeometry width="50" height="50" relative="1" as="geometry">
            <mxPoint x="730" y="420" as="sourcePoint" />
            <mxPoint x="700" y="360" as="targetPoint" />
            <Array as="points">
              <mxPoint x="710" y="420" />
              <mxPoint x="680" y="420" />
              <mxPoint x="640" y="420" />
            </Array>
          </mxGeometry>
        </mxCell>
        <mxCell id="mlbZZAVZjVXXNittmKPi-30" value="" style="endArrow=block;html=1;strokeColor=none;" edge="1" parent="1" target="mlbZZAVZjVXXNittmKPi-29">
          <mxGeometry x="-1" y="-72" relative="1" as="geometry">
            <mxPoint x="740" y="400" as="sourcePoint" />
            <mxPoint x="420" y="400" as="targetPoint" />
            <mxPoint x="60" y="32" as="offset" />
          </mxGeometry>
        </mxCell>
        <mxCell id="mlbZZAVZjVXXNittmKPi-31" value="" style="endArrow=classic;html=1;rounded=0;" edge="1" parent="1">
          <mxGeometry width="50" height="50" relative="1" as="geometry">
            <mxPoint x="505" y="394.5" as="sourcePoint" />
            <mxPoint x="425" y="394.5" as="targetPoint" />
            <Array as="points">
              <mxPoint x="425" y="394.5" />
            </Array>
          </mxGeometry>
        </mxCell>
        <mxCell id="mlbZZAVZjVXXNittmKPi-33" value="" style="endArrow=block;html=1;strokeColor=none;" edge="1" parent="1" source="mlbZZAVZjVXXNittmKPi-29" target="mlbZZAVZjVXXNittmKPi-32">
          <mxGeometry x="-1" y="321" relative="1" as="geometry">
            <mxPoint x="480" y="398" as="sourcePoint" />
            <mxPoint x="420" y="400" as="targetPoint" />
            <mxPoint x="310" y="-299" as="offset" />
          </mxGeometry>
        </mxCell>
        <mxCell id="mlbZZAVZjVXXNittmKPi-32" value="7. Notifikasi Aplikasi" style="text;strokeColor=none;align=center;fillColor=none;html=1;verticalAlign=middle;whiteSpace=wrap;rounded=0;" vertex="1" parent="1">
          <mxGeometry x="100" y="270" width="280" height="30" as="geometry" />
        </mxCell>
        <mxCell id="mlbZZAVZjVXXNittmKPi-34" value="" style="endArrow=classic;html=1;rounded=0;" edge="1" parent="1" source="mlbZZAVZjVXXNittmKPi-13">
          <mxGeometry width="50" height="50" relative="1" as="geometry">
            <mxPoint x="280" y="470" as="sourcePoint" />
            <mxPoint x="200" y="320" as="targetPoint" />
          </mxGeometry>
        </mxCell>
        <mxCell id="mlbZZAVZjVXXNittmKPi-37" value="Warga" style="shape=umlActor;verticalLabelPosition=bottom;verticalAlign=top;html=1;outlineConnect=0;" vertex="1" parent="1">
          <mxGeometry x="120" y="10" width="30" height="70" as="geometry" />
        </mxCell>
        <mxCell id="mlbZZAVZjVXXNittmKPi-38" value="" style="endArrow=none;dashed=1;html=1;rounded=0;" edge="1" parent="1" target="mlbZZAVZjVXXNittmKPi-37">
          <mxGeometry width="50" height="50" relative="1" as="geometry">
            <mxPoint x="140" y="620" as="sourcePoint" />
            <mxPoint x="170" y="130" as="targetPoint" />
          </mxGeometry>
        </mxCell>
        <mxCell id="mlbZZAVZjVXXNittmKPi-39" value="" style="endArrow=block;html=1;strokeColor=none;" edge="1" parent="1" target="mlbZZAVZjVXXNittmKPi-29">
          <mxGeometry x="0.625" y="180" relative="1" as="geometry">
            <mxPoint x="420" y="350" as="sourcePoint" />
            <mxPoint x="740" y="350" as="targetPoint" />
            <mxPoint as="offset" />
          </mxGeometry>
        </mxCell>
        <mxCell id="mlbZZAVZjVXXNittmKPi-29" value="6. Admin Verifikasi" style="text;strokeColor=none;align=center;fillColor=none;html=1;verticalAlign=middle;whiteSpace=wrap;rounded=0;" vertex="1" parent="1">
          <mxGeometry x="360" y="330" width="200" height="30" as="geometry" />
        </mxCell>
      </root>
    </mxGraphModel>
  </diagram>
</mxfile>
